<svg width="45" height="45" viewBox="0 0 45 45" fill="none" xmlns="http://www.w3.org/2000/svg">
<g filter="url(#filter0_d_520_97)">
<rect x="5" y="1" width="35" height="35" rx="4" fill="white"/>
<rect x="5.5" y="1.5" width="34" height="34" rx="3.5" stroke="#FFC20E"/>
</g>
<path d="M35 15.0552C35 15.1993 35 15.3545 35 15.4987C34.8111 15.7204 34.6444 15.9643 34.4222 16.1528C32.6667 17.6828 30.9111 19.2129 29.1333 20.7207C28.8222 20.9868 28.7333 21.2086 28.8333 21.6077C29.4111 23.9693 29.9556 26.342 30.4889 28.7035C30.5333 28.9253 30.4667 29.2246 30.3556 29.4131C30.1 29.8344 29.6222 29.8566 29.0333 29.5018C26.9889 28.2711 24.9556 27.0515 22.9222 25.7987C22.6111 25.6102 22.4 25.5991 22.0778 25.7876C20.0444 27.0294 18 28.249 15.9667 29.4907C15.5778 29.7236 15.1889 29.8677 14.7889 29.5573C14.4222 29.269 14.4222 28.9031 14.5333 28.4596C15.1 26.1313 15.6333 23.803 16.1556 21.4747C16.2 21.2751 16.1222 20.9425 15.9778 20.8205C14.5778 19.5788 13.1556 18.3813 11.7444 17.1506C11.1444 16.6295 10.5778 16.053 10 15.4987C10 15.3545 10 15.1993 10 15.0552C10.2111 14.6449 10.5444 14.4454 11.0111 14.4121C13.3444 14.2236 15.6889 14.013 18.0222 13.8467C18.4667 13.8134 18.7111 13.7025 18.8889 13.2701C19.7889 11.0748 20.7222 8.89066 21.6444 6.70648C21.9 6.10777 22.2667 5.86385 22.7333 6.07451C22.9889 6.19647 23.2333 6.46256 23.3444 6.71757C24.3 8.92393 25.2444 11.1525 26.1667 13.381C26.3 13.7025 26.4778 13.8134 26.8222 13.8467C29.2 14.0241 31.5778 14.2236 33.9444 14.4121C34.4111 14.4343 34.7778 14.6228 35 15.0552Z" fill="#FFC20E"/>
<defs>
<filter id="filter0_d_520_97" x="0" y="0" width="45" height="45" filterUnits="userSpaceOnUse" color-interpolation-filters="sRGB">
<feFlood flood-opacity="0" result="BackgroundImageFix"/>
<feColorMatrix in="SourceAlpha" type="matrix" values="0 0 0 0 0 0 0 0 0 0 0 0 0 0 0 0 0 0 127 0" result="hardAlpha"/>
<feOffset dy="4"/>
<feGaussianBlur stdDeviation="2.5"/>
<feComposite in2="hardAlpha" operator="out"/>
<feColorMatrix type="matrix" values="0 0 0 0 1 0 0 0 0 0.760784 0 0 0 0 0.054902 0 0 0 0.15 0"/>
<feBlend mode="normal" in2="BackgroundImageFix" result="effect1_dropShadow_520_97"/>
<feBlend mode="normal" in="SourceGraphic" in2="effect1_dropShadow_520_97" result="shape"/>
</filter>
</defs>
</svg>
