<svg width="45" height="45" viewBox="0 0 45 45" fill="none" xmlns="http://www.w3.org/2000/svg">
<g filter="url(#filter0_d_520_98)">
<rect x="5" y="1" width="35" height="35" rx="4" fill="white"/>
<rect x="5.5" y="1.5" width="34" height="34" rx="3.5" stroke="#FFC20E"/>
</g>
<path d="M36.25 15.9868C36.25 16.2138 36.25 16.3651 36.25 16.5921C36.1009 17.1974 35.8774 17.727 35.7283 18.3322C35.5793 19.0132 35.1321 19.3158 34.4614 19.3158C32.1511 19.3158 29.9153 19.3158 27.605 19.3158C27.2324 19.3158 26.7107 19.0888 26.6362 18.8618C26.1145 17.727 25.3692 16.5921 26.189 15.1546C27.2324 13.2632 27.9776 11.2204 28.9465 9.10197C27.2324 9.55592 25.7419 10.0099 24.1768 10.3882C23.6551 10.5395 23.5806 10.7664 23.5806 11.2204C23.5806 15.7599 23.5806 20.2993 23.5806 24.8388C23.5806 25.0658 23.5806 25.2928 23.5806 25.5197C23.8787 25.5197 24.1023 25.5197 24.3259 25.5197C25.5183 25.5197 26.7107 25.5197 27.9031 25.5197C28.0522 25.5197 28.2012 25.5197 28.3503 25.5197C29.0955 25.5197 29.5427 26.4885 29.5427 27.0938C29.5427 27.699 29.0955 28.5 28.3503 28.5C24.9221 28.5 21.5684 28.5 18.1402 28.5C17.6186 28.5 17.0969 28.5 16.5752 28.5C15.9045 28.5 15.4573 27.6234 15.4573 27.0938C15.4573 26.4885 15.9045 25.5954 16.5752 25.5197C17.4695 25.5197 18.3638 25.5197 19.2581 25.5197C20.0034 25.5197 20.7486 25.5197 21.4939 25.5197C21.4939 20.6776 21.4939 15.9112 21.4939 11.0691C19.4817 11.5987 17.544 12.1283 15.5318 12.7336C15.6809 13.0362 15.7554 13.2632 15.8299 13.4901C16.8733 15.7599 17.9167 18.0296 18.96 20.2993C19.1091 20.7533 19.1091 21.2829 19.1091 21.7368C19.0346 22.2664 18.811 22.7204 18.7365 23.25C18.5874 23.8553 18.2148 24.0822 17.6186 24.0822C15.3083 24.0822 12.9234 24.0822 10.6131 24.0822C10.0169 24.0822 9.64431 23.7796 9.49526 23.25C9.27168 22.6447 9.0481 21.9638 8.75 21.3586C8.75 21.2829 8.75 21.1316 8.75 21.0559C10.166 18.0296 11.582 15.0033 12.998 11.977C13.2961 11.3717 13.7432 10.9934 14.3394 10.8421C16.0535 10.3882 17.7676 9.93421 19.4817 9.48026C20.1524 9.32895 20.8232 9.10197 21.5684 8.875C21.5684 8.34539 21.5684 7.89145 21.5684 7.4375C21.4939 6.75658 21.792 6.30263 22.3137 6C22.5373 6 22.6863 6 22.9099 6C23.8787 6.52961 23.5061 7.51316 23.6552 8.34539C25.8164 7.74013 27.9776 7.13487 30.0644 6.60526C31.0332 6.30263 31.2568 6.45395 31.7785 7.4375C33.269 10.3125 34.7595 13.1118 36.25 15.9868ZM11.5075 19.9211C13.2215 19.9211 14.8611 19.9211 16.5752 19.9211C15.7554 18.1053 14.9356 16.3651 14.0413 14.4737C13.147 16.2895 12.3272 18.1053 11.5075 19.9211ZM33.5671 15.2303C32.6728 13.4145 31.7785 11.6743 30.8096 9.85855C29.9898 11.6743 29.1701 13.4145 28.4248 15.2303C30.1389 15.2303 31.7785 15.2303 33.5671 15.2303Z" fill="#FFC20E"/>
<defs>
<filter id="filter0_d_520_98" x="0" y="0" width="45" height="45" filterUnits="userSpaceOnUse" color-interpolation-filters="sRGB">
<feFlood flood-opacity="0" result="BackgroundImageFix"/>
<feColorMatrix in="SourceAlpha" type="matrix" values="0 0 0 0 0 0 0 0 0 0 0 0 0 0 0 0 0 0 127 0" result="hardAlpha"/>
<feOffset dy="4"/>
<feGaussianBlur stdDeviation="2.5"/>
<feComposite in2="hardAlpha" operator="out"/>
<feColorMatrix type="matrix" values="0 0 0 0 1 0 0 0 0 0.760784 0 0 0 0 0.054902 0 0 0 0.15 0"/>
<feBlend mode="normal" in2="BackgroundImageFix" result="effect1_dropShadow_520_98"/>
<feBlend mode="normal" in="SourceGraphic" in2="effect1_dropShadow_520_98" result="shape"/>
</filter>
</defs>
</svg>
