<svg width="45" height="45" viewBox="0 0 45 45" fill="none" xmlns="http://www.w3.org/2000/svg">
<g filter="url(#filter0_d_520_100)">
<rect x="5" y="1" width="35" height="35" rx="4" fill="white"/>
<rect x="5.5" y="1.5" width="34" height="34" rx="3.5" stroke="#FFC20E"/>
</g>
<path d="M31.8739 9.39657C31.6808 9.37385 31.4991 9.38521 31.306 9.38521C26.3882 9.38521 21.459 9.38521 16.5412 9.39657C16.1437 9.39657 15.9279 9.30571 15.7803 8.9082C15.6099 8.4539 15.3828 8.01095 15.1443 7.57937C15.0648 7.44308 14.8944 7.26136 14.7581 7.26136C13.9517 7.25 11.3849 7.25 9.79489 7.25C9.21566 7.25 8.75 7.71566 8.75 8.29489C8.75 8.87412 9.21566 9.33978 9.78353 9.33978C10.9874 9.35114 12.7706 9.35114 13.134 9.32842C13.5315 9.29435 13.7246 9.45336 13.895 9.8168C15.0307 12.2473 16.1892 14.6551 17.3249 17.0856C17.4158 17.2787 17.4044 17.5967 17.3022 17.7898C16.9501 18.5053 16.5753 19.1981 16.1551 19.8795C15.1216 21.5605 16.5072 23.2414 18.1427 23.2073C21.3 23.1392 27.2173 23.1619 29.6137 23.1732C30.1816 23.1732 30.6473 22.7076 30.6473 22.1397C30.6473 21.5718 30.1816 21.1062 29.6137 21.1062C27.3195 21.1062 21.7998 21.1062 18.8923 21.1062C18.7446 21.1062 18.5856 21.1175 18.438 21.1062C18.1313 21.0607 17.995 20.9131 18.1654 20.5951C18.3812 20.1976 18.631 19.8114 18.8128 19.4025C18.9718 19.0391 19.1989 18.9255 19.5964 18.9255C22.0042 18.9482 24.4006 18.9255 26.8084 18.9369C27.7625 18.9369 28.478 18.5734 28.9436 17.7216C30.1362 15.5296 31.3514 13.349 32.544 11.1683C32.6121 11.0321 32.6916 10.8958 32.7371 10.7595C32.9642 10.1007 32.5553 9.47607 31.8739 9.39657Z" fill="#FFC20E"/>
<path d="M28.6138 24.2861C27.4326 24.2633 26.4786 25.1833 26.4786 26.3645C26.4673 27.557 27.3872 28.4997 28.557 28.4997C29.7155 28.511 30.6923 27.5457 30.6923 26.3872C30.6923 25.2628 29.7609 24.3088 28.6138 24.2861Z" fill="#FFC20E"/>
<path d="M17.916 24.2861C16.7802 24.2861 15.8262 25.2288 15.8148 26.3646C15.7921 27.523 16.7689 28.4998 17.916 28.4998C19.0972 28.4998 20.0171 27.5798 20.0171 26.3873C20.0171 25.2061 19.1085 24.2861 17.916 24.2861Z" fill="#FFC20E"/>
<defs>
<filter id="filter0_d_520_100" x="0" y="0" width="45" height="45" filterUnits="userSpaceOnUse" color-interpolation-filters="sRGB">
<feFlood flood-opacity="0" result="BackgroundImageFix"/>
<feColorMatrix in="SourceAlpha" type="matrix" values="0 0 0 0 0 0 0 0 0 0 0 0 0 0 0 0 0 0 127 0" result="hardAlpha"/>
<feOffset dy="4"/>
<feGaussianBlur stdDeviation="2.5"/>
<feComposite in2="hardAlpha" operator="out"/>
<feColorMatrix type="matrix" values="0 0 0 0 1 0 0 0 0 0.760784 0 0 0 0 0.054902 0 0 0 0.15 0"/>
<feBlend mode="normal" in2="BackgroundImageFix" result="effect1_dropShadow_520_100"/>
<feBlend mode="normal" in="SourceGraphic" in2="effect1_dropShadow_520_100" result="shape"/>
</filter>
</defs>
</svg>
