<svg width="73" height="73" viewBox="0 0 73 73" fill="none" xmlns="http://www.w3.org/2000/svg">
<g filter="url(#filter0_d_506_119)">
<rect x="15" y="11" width="43" height="43" rx="4" fill="#0070FF"/>
</g>
<path fill-rule="evenodd" clip-rule="evenodd" d="M40.925 21.842C45.3488 24.3151 47.7085 29.4586 46.6775 34.5259C46.6705 34.5555 46.6636 34.5851 46.627 34.6078C46.5022 35.1406 46.1748 35.4699 45.6413 35.3449C45.1077 35.2199 44.9538 34.8091 45.0786 34.2762C45.5673 31.9236 45.2891 29.6412 44.2004 27.4811C42.8374 24.7572 40.6475 23.0261 37.7248 22.1539C37.6841 22.1444 37.6383 22.141 37.5938 22.1377C37.5087 22.1314 37.4285 22.1255 37.3987 22.0775L37.2625 21.8582C36.9534 21.4423 37.0694 20.8137 37.5538 20.6149C37.5795 20.6125 37.603 20.6097 37.6249 20.607C37.6847 20.5998 37.7318 20.5941 37.7752 20.6043C38.8581 20.9205 39.9272 21.2959 40.925 21.842ZM41.1637 37.6372C41.4482 37.8913 41.8897 38.2758 42.2038 38.5367C43.5352 39.6607 43.7049 40.1376 43.382 41.2487C43.2918 41.6335 43.0989 42.0567 42.8151 42.3337C41.3298 43.7345 39.5557 44.0995 37.5418 43.7526C37.3058 43.6313 37.0653 43.5174 36.8244 43.4035L36.8243 43.4034C36.2677 43.14 35.7098 42.876 35.2044 42.5178C29.7852 38.6873 26.634 33.452 25.6707 26.8868C25.2821 24.1413 26.8461 21.6035 29.3115 20.5573C29.8394 20.3063 30.5767 20.2292 31.2288 20.382C32.1547 20.5677 32.3092 21.5096 32.3868 22.246C32.4388 22.8095 32.5179 23.3665 32.5969 23.9222L32.5969 23.9222L32.5969 23.9222C32.6923 24.5943 32.7875 25.2646 32.8342 25.9421C32.8692 26.3214 32.6153 26.7555 32.4077 27.1106L32.4016 27.1211C32.2103 27.4135 31.8829 27.6439 31.5876 27.8517L31.5709 27.8634C30.3865 28.6476 30.2465 29.6454 30.6944 30.937C31.5586 33.388 32.8459 35.5009 34.9014 37.138C35.4022 37.5364 35.8992 37.6841 36.5003 37.3877C36.5665 37.372 36.6327 37.3563 36.6693 37.3336C38.3797 36.173 39.7483 36.3375 41.1637 37.6372ZM37.1051 25.194C40.6503 26.212 42.7709 29.7069 42.1252 33.3967C42.03 33.9365 41.9941 34.4902 42.6393 34.6726C43.3211 34.8324 43.521 34.3796 43.6597 33.7875C44.622 29.5473 41.7887 24.8236 37.4362 23.6476C36.9688 23.5069 36.3236 23.3245 36.1363 24.1238C35.9629 24.8639 36.5192 25.0254 37.1051 25.194ZM39.0981 32.8432C39.3793 30.4421 38.4414 28.9732 36.1689 28.1284C35.6196 27.9372 35.2462 27.6624 35.4581 27.025C35.663 26.4172 36.1581 26.4395 36.6848 26.5941C39.4435 27.3655 41.2077 30.2459 40.5979 33.3821C40.4592 33.9741 40.0827 33.9796 39.7497 33.9328C39.1499 33.8235 39.0325 33.39 39.0981 32.8432Z" fill="white"/>
<defs>
<filter id="filter0_d_506_119" x="0" y="0" width="73" height="73" filterUnits="userSpaceOnUse" color-interpolation-filters="sRGB">
<feFlood flood-opacity="0" result="BackgroundImageFix"/>
<feColorMatrix in="SourceAlpha" type="matrix" values="0 0 0 0 0 0 0 0 0 0 0 0 0 0 0 0 0 0 127 0" result="hardAlpha"/>
<feOffset dy="4"/>
<feGaussianBlur stdDeviation="7.5"/>
<feComposite in2="hardAlpha" operator="out"/>
<feColorMatrix type="matrix" values="0 0 0 0 0 0 0 0 0 0.439216 0 0 0 0 1 0 0 0 0.15 0"/>
<feBlend mode="normal" in2="BackgroundImageFix" result="effect1_dropShadow_506_119"/>
<feBlend mode="normal" in="SourceGraphic" in2="effect1_dropShadow_506_119" result="shape"/>
</filter>
</defs>
</svg>
