<svg width="17" height="12" viewBox="0 0 17 12" fill="none" xmlns="http://www.w3.org/2000/svg">
<path opacity="0.5" d="M8.23334 11.9982C6.34509 11.9982 4.45683 11.9982 2.56858 11.9982C1.77996 11.9982 1.10981 11.7445 0.58036 11.1692C0.332296 10.8941 0.139768 10.5868 0.0731235 10.2224C0.0323965 10.0044 0.00277684 9.78286 0.00277684 9.56133C-0.000925614 7.09586 -0.000925614 4.63039 0.00277684 2.16849C0.00277684 1.79331 0.15828 1.46101 0.358213 1.14657C0.647004 0.682066 1.07649 0.385495 1.58002 0.178253C1.70591 0.128229 1.8466 0.0996434 1.97989 0.0853508C3.6571 -0.0682944 5.33802 0.0353268 7.01893 0.0210342C9.36259 0.00316849 11.7062 0.00316849 14.0499 0.0210342C14.7978 0.0281805 15.4568 0.310459 15.9419 0.875016C16.1788 1.15372 16.3899 1.46458 16.4306 1.84691C16.4528 2.05058 16.4972 2.25425 16.4972 2.45792C16.5009 4.9091 16.5009 7.36385 16.4972 9.81502C16.4972 10.1973 16.3491 10.5475 16.1418 10.8727C15.853 11.33 15.4346 11.6409 14.9311 11.8338C14.6793 11.9303 14.3905 11.9911 14.1202 11.9911C12.1579 12.0054 10.1956 11.9982 8.23334 11.9982ZM2.69076 1.57893C2.75 1.66468 2.77962 1.72542 2.82405 1.77187C3.32388 2.27926 3.82742 2.7795 4.33095 3.28331C5.17881 4.13372 6.03038 4.98413 6.87824 5.83811C7.27811 6.23831 7.67057 6.64564 8.07043 7.04941C8.21483 7.19591 8.28888 7.19591 8.42957 7.04941C8.53324 6.94221 8.6258 6.82787 8.73317 6.72068C9.29965 6.1454 9.86983 5.5737 10.4363 5.002C11.0546 4.3767 11.6766 3.75497 12.2986 3.13324C12.754 2.67588 13.2168 2.22566 13.676 1.7683C13.7204 1.72185 13.75 1.66111 13.8055 1.57893C10.0883 1.57893 6.41914 1.57893 2.69076 1.57893ZM2.70557 10.4225C6.41543 10.4225 10.0735 10.4225 13.7685 10.4225C13.7056 10.351 13.6722 10.3045 13.6352 10.2652C13.0873 9.70783 12.5356 9.14684 11.9839 8.58943C11.547 8.14994 11.1064 7.71401 10.677 7.27094C10.577 7.16732 10.5066 7.16375 10.4178 7.27094C10.3178 7.38886 10.2142 7.5032 10.1031 7.61039C9.66619 8.04632 9.2256 8.47867 8.78501 8.91102C8.48511 9.20401 8.03341 9.22545 7.7261 8.92174C7.17073 8.37505 6.62277 7.82835 6.07851 7.27094C5.97854 7.16732 5.9193 7.16018 5.81934 7.26737C5.54906 7.5568 5.27137 7.84265 4.98999 8.12135C4.33465 8.78238 3.67561 9.43984 3.01658 10.1009C2.92402 10.2009 2.83145 10.2974 2.70557 10.4225ZM14.8718 2.86883C14.857 2.86168 14.8459 2.85454 14.8311 2.84382C13.7796 3.90147 12.7281 4.95912 11.6729 6.02034C12.7429 7.09943 13.7944 8.15351 14.8718 9.24332C14.8718 7.09229 14.8718 4.98056 14.8718 2.86883ZM4.81967 6.02749C3.76447 4.96269 2.71298 3.90504 1.63186 2.81523C1.63186 4.98056 1.63186 7.09229 1.63186 9.22903C2.70557 8.14994 3.74966 7.09943 4.81967 6.02749Z" fill="#283780"/>
</svg>
