<svg width="16" height="15" viewBox="0 0 16 15" fill="none" xmlns="http://www.w3.org/2000/svg">
<path d="M9.53674e-07 6.23219C0.0424404 6.06027 0.0848808 5.84537 0.127321 5.67345C0.212202 5.24365 0.339523 4.81385 0.509285 4.38405C1.23077 2.70784 2.58886 1.46142 4.54111 0.687779C7.4695 -0.429699 10.2281 -0.17182 12.817 1.41844C14.6419 2.53592 15.6605 4.08319 15.9576 6.06027C15.9576 6.10325 15.9576 6.10325 16 6.14623V6.23219V7.34967V7.39265C15.9576 7.52159 15.9576 7.65053 15.9151 7.77947C15.8727 8.08033 15.7878 8.38119 15.6605 8.68205C15.4058 9.24079 15.1088 9.79953 14.7692 10.4012C14.6419 10.6161 14.6844 10.831 14.7268 11.0889V11.1749C14.8966 12.1634 15.2361 13.109 15.7454 14.1835C15.7878 14.3124 15.8727 14.4414 15.8727 14.6992V15.0001L15.5756 14.9141C15.2361 14.8282 14.939 14.7422 14.5995 14.6563C13.8355 14.4414 13.0716 14.2265 12.2653 13.9686C11.9257 13.8396 11.5438 13.7107 11.2042 13.5388C10.992 13.4528 10.7798 13.3669 10.5676 13.2809C10.4828 13.2379 10.3554 13.2379 10.2706 13.2809C7.72414 13.8396 5.51724 13.5818 3.52255 12.4643C1.48541 11.3468 0.297084 9.67059 -0.0424385 7.47861C-0.0424385 7.47861 -0.0424404 7.43563 -0.0848808 7.43563V6.27517L9.53674e-07 6.23219ZM13.1989 12.3353C13.1141 11.9055 13.0292 11.5187 12.9867 11.1319C12.9019 10.4442 13.0292 9.88549 13.4111 9.36973C14.1326 8.42417 14.4297 7.30669 14.2175 6.23219C14.0053 4.94279 13.2414 3.82531 12.0106 3.0087C10.8223 2.1491 9.42175 1.7193 8.02122 1.7193C6.45093 1.7193 4.92308 2.19208 3.64987 3.13764C1.90981 4.42703 1.27321 6.53305 2.03714 8.38119C2.54642 9.54165 3.43767 10.4442 4.79576 11.0889C6.45093 11.8626 8.27586 11.9915 10.3554 11.4757C10.695 11.3898 10.9496 11.4757 11.2042 11.6047C11.756 11.8626 12.3077 12.1204 12.9019 12.3783C13.0292 12.4213 13.1141 12.4643 13.2414 12.5502L13.1989 12.3353Z" fill="#283780"/>
<path d="M11.2476 7.99428C10.9081 7.99428 10.611 7.86534 10.3988 7.65044C10.1866 7.43554 10.0593 7.13468 10.0593 6.79084C10.0593 6.14614 10.5685 5.5874 11.2052 5.5874C11.5022 5.5874 11.7993 5.71634 12.0115 5.93124C12.2237 6.14614 12.351 6.48998 12.351 6.79084C12.3935 7.43554 11.8842 7.99428 11.2476 7.99428Z" fill="#283780"/>
<path d="M7.97964 7.99428C7.68256 7.99428 7.38548 7.86534 7.17327 7.65044C6.96107 7.43554 6.83375 7.13468 6.83375 6.79084C6.83375 6.48998 6.96107 6.14614 7.21571 5.93124C7.42792 5.71634 7.725 5.5874 8.02208 5.5874C8.65869 5.5874 9.16797 6.14614 9.16797 6.83382C9.12553 7.47852 8.61624 7.99428 7.97964 7.99428Z" fill="#283780"/>
<path d="M4.75255 7.99428C4.41303 7.99428 4.15838 7.86534 3.94618 7.65044C3.73398 7.43554 3.60666 7.13468 3.60666 6.79084C3.60666 6.48998 3.73398 6.14614 3.94618 5.93124C4.15838 5.71634 4.45547 5.5874 4.75255 5.5874C5.38915 5.5874 5.89844 6.14614 5.89844 6.79084C5.89844 7.47852 5.38915 7.99428 4.75255 7.99428Z" fill="#283780"/>
</svg>
