<svg width="13" height="18" viewBox="0 0 13 18" fill="none" xmlns="http://www.w3.org/2000/svg">
<path d="M6.52927 18C6.3091 17.7337 6.06142 17.4675 5.84125 17.2279C4.76794 16.0031 3.80471 14.725 2.89653 13.3671C2.15347 12.2754 1.49297 11.1571 0.970072 9.95899C0.55726 9.10696 0.22701 8.2283 0.0894065 7.2964C-0.213322 5.43259 0.254531 3.75516 1.46545 2.29073C2.09842 1.51858 2.89653 0.932813 3.83223 0.533425C4.63034 0.187289 5.45596 0.0009077 6.3091 0.0009077C8.07043 -0.0257182 9.6116 0.533425 10.9051 1.67834C12.0059 2.6635 12.6664 3.86166 12.9141 5.27283C13.0792 6.20474 12.9967 7.11002 12.749 8.0153C12.4462 9.10696 12.0059 10.1187 11.483 11.1039C10.9326 12.1423 10.2996 13.1275 9.6116 14.086C8.86854 15.1244 8.09795 16.1362 7.27233 17.0947C7.05216 17.361 6.80448 17.6272 6.58431 17.8669C6.61183 17.9201 6.55679 17.9467 6.52927 18ZM6.52927 8.54781C7.85027 8.54781 8.86854 7.53603 8.86854 6.25799C8.86854 5.05982 7.79523 4.04804 6.55679 4.04804C5.23579 4.04804 4.19 5.0332 4.19 6.33787C4.19 7.53603 5.23579 8.54781 6.52927 8.54781Z" fill="#FFC20E"/>
</svg>
